<svg id="Layer_1" data-name="Layer 1" xmlns="http://www.w3.org/2000/svg" xmlns:xlink="http://www.w3.org/1999/xlink" viewBox="0 0 501.92 463.74"><defs><style>.cls-1,.cls-10,.cls-11,.cls-14,.cls-15,.cls-7,.cls-9{fill:none;}.cls-2{fill:#fff;}.cls-3{font-size:33.96px;}.cls-16,.cls-18,.cls-3{fill:#241b55;}.cls-16,.cls-3{font-family:AirAmericana, Air Americana;}.cls-4{clip-path:url(#clip-path);}.cls-5{fill:#f6bc3e;}.cls-6{fill:#00adc9;}.cls-7{stroke:#fff;stroke-width:4.66px;}.cls-10,.cls-11,.cls-14,.cls-15,.cls-7,.cls-9{stroke-miterlimit:10;}.cls-8{clip-path:url(#clip-path-2);}.cls-10,.cls-11,.cls-14,.cls-15,.cls-9{stroke:#241b55;}.cls-9{stroke-width:3px;}.cls-10{stroke-width:3.17px;}.cls-11{stroke-width:3.35px;}.cls-12{clip-path:url(#clip-path-3);}.cls-13{clip-path:url(#clip-path-4);}.cls-14{stroke-width:2.89px;}.cls-15{stroke-width:1.73px;}.cls-16{font-size:103.86px;}.cls-17{clip-path:url(#clip-path-5);}.cls-18{font-size:18px;font-family:Yellowtail-Regular, Yellowtail;}</style><clipPath id="clip-path" transform="translate(-46.51 -194.44)"><path class="cls-1" d="M292.15,275.05c83.44.09,151,67.88,150.92,151.42s-67.8,151.19-151.24,151.1-151-67.88-150.92-151.42S208.71,275,292.15,275.05"/></clipPath><clipPath id="clip-path-2" transform="translate(-46.51 -194.44)"><polygon class="cls-1" points="105.2 185.12 483.62 185.12 483.62 562.41 448.7 535.75 412.66 500.47 176.15 501.22 176.9 517.36 135.28 541.39 74.51 484.98 105.2 185.12"/></clipPath><clipPath id="clip-path-3" transform="translate(-46.51 -194.44)"><path class="cls-1" d="M110.43,258.35c1.85-6,9.38-10.41,15.21-11.83a23.36,23.36,0,0,1,10.7,0c21.7,4.86,315.81-11.68,330.55,9a29,29,0,0,1,5.06,13,26.18,26.18,0,0,1-1.12,9.58,42.82,42.82,0,0,1-10.7,18.58C453.5,303.22,446,306,441,307.9c-8.22,3.08-12.42,2.76-17.45,7.32a26.5,26.5,0,0,0-6.2,9c-7.34,15.43-1.93,28.33-8.44,32.1-2.27,1.31-4.74.81-6.2.56-27.52-4.65-109.45,10.87-114.88-7.32-1.45-4.87,3.6-8.77,1.13-11.82-5-6.17-28.14,6.78-38.29.56-1.34-.82-7.36-5-10.14-7.32-1.8-1.51-2.69-2.27-2.89-2.49a8.93,8.93,0,0,0-2.38-2.12,8.46,8.46,0,0,0-.92-.46c-2.57-1.05-12.27,2.22-18.58.57-2.57-.68-5.09-2.7-10.14-6.76-3.6-2.9-3.52-3.44-5.07-3.94-4.78-1.56-7.38,3-14.64,3.37-1.68.09-6.08.3-9.57-2.25-4.92-3.59-3.14-9.09-6.76-13.51-4.49-5.49-12.66-3.66-20.27-4.51C127.33,296.43,106.45,271.23,110.43,258.35Z"/></clipPath><clipPath id="clip-path-4" transform="translate(-46.51 -194.44)"><rect class="cls-1" x="126.94" y="248.66" width="196.46" height="93.06" rx="34.21" transform="translate(450.33 590.39) rotate(180)"/></clipPath><clipPath id="clip-path-5" transform="translate(-46.51 -194.44)"><circle class="cls-1" cx="291.87" cy="426.31" r="177.87"/></clipPath></defs><title>DrawingFowlsFinal</title><circle class="cls-2" cx="245.36" cy="231.87" r="231.87"/><text class="cls-3" transform="translate(104.07 345.78) rotate(48.79)">D</text><text class="cls-3" transform="translate(114.95 358.06) rotate(43.62)">r</text><text class="cls-3" transform="matrix(0.78, 0.62, -0.62, 0.78, 127.02, 369.43)">a</text><text class="cls-3" transform="matrix(0.85, 0.53, -0.53, 0.85, 140.56, 380.24)">w</text><text class="cls-3" transform="translate(161.7 392.77) rotate(26.4)">i</text><text class="cls-3" transform="translate(169.26 396.6) rotate(22.56)">n</text><text class="cls-3" transform="translate(184.36 402.76) rotate(17.48)">g</text><text class="cls-3" transform="matrix(0.97, 0.23, -0.23, 0.97, 198.96, 407.19)"> </text><text class="cls-3" transform="translate(208.04 409.44) rotate(9.57)">F</text><text class="cls-3" transform="matrix(1, 0.08, -0.08, 1, 224.29, 412.08)">o</text><text class="cls-3" transform="translate(240.91 413.45) rotate(-2.05)">w</text><text class="cls-3" transform="translate(265.93 412.15) rotate(-8.54)">l</text><text class="cls-3" transform="translate(281.47 409.75) rotate(-13.68)">s</text><text class="cls-3" transform="matrix(0.95, -0.3, 0.3, 0.95, 297.27, 405.71)"> </text><text class="cls-3" transform="matrix(0.93, -0.37, 0.37, 0.93, 306.14, 402.93)">P</text><text class="cls-3" transform="translate(321.14 396.85) rotate(-26.83)">o</text><text class="cls-3" transform="matrix(0.85, -0.53, 0.53, 0.85, 335.49, 389.49)">d</text><text class="cls-3" transform="translate(349.31 380.74) rotate(-37.03)">c</text><text class="cls-3" transform="matrix(0.74, -0.67, 0.67, 0.74, 361.91, 371.14)">a</text><text class="cls-3" transform="matrix(0.68, -0.74, 0.74, 0.68, 374.26, 359.83)">s</text><text class="cls-3" transform="matrix(0.61, -0.79, 0.79, 0.61, 385.47, 347.47)">t</text><g class="cls-4"><path class="cls-5" d="M292.15,274.9c83.44.09,151,67.88,150.92,151.42S375.27,577.5,291.83,577.41,140.82,509.53,140.91,426s67.8-151.19,151.24-151.1" transform="translate(-46.51 -194.44)"/><path class="cls-6" d="M292.15,274.9c83.44.09,151,67.88,150.92,151.42S375.27,577.5,291.83,577.41,140.82,509.53,140.91,426s67.8-151.19,151.24-151.1" transform="translate(-46.51 -194.44)"/><path class="cls-7" d="M141,333.83A92.17,92.17,0,1,1,48.84,425.9,92.11,92.11,0,0,1,141,333.83" transform="translate(-46.51 -194.44)"/><path class="cls-7" d="M438.69,334.14a92.17,92.17,0,1,1-92.16,92.07,92.11,92.11,0,0,1,92.16-92.07" transform="translate(-46.51 -194.44)"/><line class="cls-7" x1="245.64" y1="80.46" x2="245.32" y2="382.97"/><line class="cls-7" x1="396.56" y1="231.88" x2="94.4" y2="231.56"/></g><g class="cls-8"><circle class="cls-9" cx="245.48" cy="231.87" r="156.71"/><circle class="cls-10" cx="245.48" cy="231.87" r="165.44"/><circle class="cls-11" cx="245.48" cy="231.87" r="174.74"/></g><g class="cls-12"><circle class="cls-2" cx="244.48" cy="232.34" r="177.53"/></g><g class="cls-13"><path class="cls-14" d="M146.83,275.64a13,13,0,0,0,3.81,9.21c2.37,2.38,7.22,8,10.78,8l7-2,7.27-2.12a13.2,13.2,0,0,0,.56,3.78,13,13,0,0,0,3.25,5.42c2.37,2.38,7.95,7.32,11.52,7.32l14.43-3.49a13,13,0,0,0,3.81,9.24c2.37,2.35,8.16,7.87,11.73,7.87l18.76-4a13,13,0,0,0,3.81,9.21c2.37,2.34,5.63,3.83,11.18,7.77l41.91-3.45,23.7-26.41L534,327.82a13.06,13.06,0,0,0,0-26.11H469.92a13,13,0,0,0,13-13H441.09a13.05,13.05,0,0,0,0-26.1H159.83A13.05,13.05,0,0,0,146.83,275.64Z" transform="translate(-46.51 -194.44)"/></g><line class="cls-15" x1="226.65" y1="82.86" x2="113.21" y2="82.86"/><line class="cls-15" x1="208.49" y1="96.74" x2="148.82" y2="96.74"/><line class="cls-15" x1="197.57" y1="110.61" x2="170.75" y2="110.61"/><text class="cls-16" transform="translate(251.19 149.81) scale(1.69 1)">DF</text><g class="cls-17"><rect class="cls-2" x="355.29" y="214.51" width="81.81" height="35.67" rx="17.83"/><text class="cls-18" transform="translate(368.89 237.37)">est. 2019</text></g></svg>